<svg width="35" height="28" viewBox="0 0 35 28" fill="none" xmlns="http://www.w3.org/2000/svg">
<path d="M31.5 24.5H28V9.1875L17.5 15.75L7 9.1875V24.5H3.5V3.5H5.6L17.5 10.9375L29.4 3.5H31.5M31.5 0H3.5C1.5575 0 0 1.5575 0 3.5V24.5C0 25.4283 0.368749 26.3185 1.02513 26.9749C1.6815 27.6313 2.57174 28 3.5 28H31.5C32.4283 28 33.3185 27.6313 33.9749 26.9749C34.6313 26.3185 35 25.4283 35 24.5V3.5C35 2.57174 34.6313 1.6815 33.9749 1.02513C33.3185 0.368749 32.4283 0 31.5 0V0Z" fill="black" fill-opacity="0.7"/>
</svg>
