<svg width="35" height="35" viewBox="0 0 35 35" fill="none" xmlns="http://www.w3.org/2000/svg">
<path fill-rule="evenodd" clip-rule="evenodd" d="M17.5004 0.729172C13.3459 0.731327 9.3277 2.20276 6.16419 4.88035C3.00068 7.55795 0.898197 11.2671 0.232674 15.3446C-0.432849 19.4221 0.381982 23.602 2.53148 27.1369C4.68098 30.6719 8.02498 33.3313 11.9655 34.6398C12.8349 34.8011 13.1623 34.2623 13.1623 33.8042C13.1623 33.346 13.1449 32.0177 13.1391 30.5655C8.27079 31.6172 7.24207 28.5111 7.24207 28.5111C6.44806 26.4942 5.30052 25.964 5.30052 25.964C3.71251 24.8864 5.41934 24.9066 5.41934 24.9066C7.17832 25.0305 8.10273 26.7016 8.10273 26.7016C9.66177 29.3611 12.1974 28.5918 13.1942 28.1423C13.3507 27.0157 13.8057 26.2493 14.307 25.8142C10.4181 25.3762 6.33214 23.8837 6.33214 17.2162C6.30804 15.4871 6.95337 13.8149 8.1346 12.5456C7.95494 12.1076 7.35508 10.3385 8.30557 7.93543C8.30557 7.93543 9.77478 7.46865 13.1189 9.71898C15.9872 8.93904 19.0136 8.93904 21.8819 9.71898C25.2231 7.46865 26.6894 7.93543 26.6894 7.93543C27.6428 10.3327 27.0429 12.1019 26.8633 12.5456C28.0483 13.8151 28.6949 15.4902 28.6686 17.222C28.6686 23.9039 24.574 25.3762 20.6793 25.8055C21.3052 26.3472 21.8645 27.4047 21.8645 29.0298C21.8645 31.3579 21.8442 33.2308 21.8442 33.8042C21.8442 34.2681 22.1601 34.8098 23.0468 34.6398C26.9878 33.3312 30.3322 30.6712 32.4816 27.1357C34.6311 23.6002 35.4455 19.4196 34.7792 15.3417C34.1129 11.2639 32.0094 7.55469 28.8449 4.87755C25.6803 2.20042 21.6611 0.729961 17.5062 0.729172H17.5004Z" fill="white"/>
</svg>
