<svg width="35" height="35" viewBox="0 0 35 35" fill="none" xmlns="http://www.w3.org/2000/svg">
<g clip-path="url(#clip0_12_15)">
<path fill-rule="evenodd" clip-rule="evenodd" d="M24.5632 9.54895C22.7563 7.82564 20.3449 6.88682 17.85 6.9254C13.2845 6.9254 9.40704 10.0055 8.02451 14.153C7.29146 16.3264 7.29146 18.68 8.02451 20.8534H8.03092C9.41986 24.9945 13.2909 28.0746 17.8564 28.0746C20.2131 28.0746 22.2363 27.4718 23.8044 26.4071V26.4028C25.6499 25.181 26.9103 23.2584 27.3025 21.0849H17.85V14.346H34.3565C34.5623 15.5163 34.6588 16.7123 34.6588 17.9019C34.6588 23.2246 32.7565 27.7247 29.4467 30.7726L29.4502 30.7753C26.5501 33.4503 22.5698 35 17.85 35C11.2332 35 5.18231 31.2705 2.21152 25.361C-0.270546 20.4162 -0.27054 14.5903 2.21154 9.64545C5.18233 3.72959 11.2332 -1.08809e-05 17.85 -1.08809e-05C22.1968 -0.0514531 26.3958 1.58184 29.5595 4.55263L24.5632 9.54895Z" fill="white"/>
</g>
<defs>
<clipPath id="clip0_12_15">
<rect width="35" height="35" fill="white"/>
</clipPath>
</defs>
</svg>
