<svg width="151" height="141" viewBox="0 0 151 141" fill="none" xmlns="http://www.w3.org/2000/svg">
<path d="M100.714 2.71243C100.714 2.71243 76.1023 -6.03827 51.9457 7.89544C27.789 21.8292 15.5914 49.4835 5.12367 71.6369C-5.34411 93.7904 0.672001 116.329 19.1146 126.602C37.5572 136.876 50.095 121.731 75.9656 120.993C101.836 120.256 108.803 123.954 130.285 109.339C151.768 94.7252 155.631 60.2089 138.699 34.6722C121.767 9.13555 100.714 2.71243 100.714 2.71243Z" fill="#92E3A9"/>
<path opacity="0.7" d="M100.714 2.71243C100.714 2.71243 76.1023 -6.03827 51.9457 7.89544C27.789 21.8292 15.5914 49.4835 5.12367 71.6369C-5.34411 93.7904 0.672001 116.329 19.1146 126.602C37.5572 136.876 50.095 121.731 75.9656 120.993C101.836 120.256 108.803 123.954 130.285 109.339C151.768 94.7252 155.631 60.2089 138.699 34.6722C121.767 9.13555 100.714 2.71243 100.714 2.71243Z" fill="white"/>
<path d="M7.52437 81.7994C7.52437 81.7994 8.11581 82.9219 7.59115 83.9744C7.06649 85.0269 6.4051 86.0826 6.79939 86.6104C7.19368 87.1383 8.38927 87.7965 8.24936 88.9157C8.10945 90.035 6.53547 92.2768 7.52437 93.5296C8.51328 94.7824 10.1604 94.7156 10.2272 96.0988C10.2939 97.482 8.63729 98.6013 9.10471 99.8541C9.57214 101.107 12.2845 101.371 12.2845 102.226C12.2845 103.082 11.2288 104.007 12.0873 104.929C12.9459 105.851 17.0859 108.258 17.6646 107.269C18.2433 106.28 19.4517 103.546 18.6663 99.6634C18.5327 99.0115 17.6042 98.8652 17.4738 97.9431C17.3435 97.021 17.7378 95.3739 17.0796 94.4454C16.4213 93.5169 14.31 93.1925 14.1796 92.4675C14.0492 91.7426 14.9682 89.9651 14.0461 88.8458C13.1239 87.7265 10.949 87.205 10.949 86.4737C10.949 85.7423 11.6104 84.8266 10.6882 83.8377C9.7661 82.8488 7.52437 81.7994 7.52437 81.7994Z" fill="#92E3A9"/>
<path d="M10.6787 89.5645C12.0523 93.6981 14.4562 99.3168 15.4324 102.029C16.6185 105.323 17.6583 107.708 18.1766 111.002C18.6949 114.297 18.9938 136.361 18.9938 136.361" stroke="#263238" stroke-linecap="round" stroke-linejoin="round"/>
<path d="M7.86459 82.1969C7.86459 82.1969 8.98387 83.119 9.97278 87.1383C10.0364 87.3958 10.1095 87.6693 10.189 87.9586" stroke="#263238" stroke-linecap="round" stroke-linejoin="round"/>
<path d="M28.1197 89.3069C27.9856 89.5763 27.9116 89.8717 27.9029 90.1725C27.8941 90.4734 27.9507 90.7726 28.0688 91.0494C28.4885 91.892 29.0227 92.7347 28.7048 93.1576C28.3868 93.5805 27.4329 94.1115 27.5442 95.0018C27.6555 95.8922 28.9146 97.6919 28.1229 98.6935C27.3311 99.6952 26.0147 99.6475 25.9606 100.751C25.9066 101.854 27.2325 102.754 26.8573 103.756C26.4821 104.757 24.3135 104.97 24.3135 105.664C24.3135 106.357 25.1593 107.088 24.4725 107.826C23.7857 108.564 20.4787 110.481 20.0049 109.686C19.5312 108.891 18.5772 106.707 19.2036 103.6C19.3086 103.078 20.0526 102.964 20.1576 102.223C20.2625 101.482 19.9477 100.166 20.4755 99.4281C21.0034 98.6904 22.7014 98.4264 22.7936 97.8382C22.8858 97.2499 22.1576 95.8349 22.8985 94.9382C23.6394 94.0415 25.3787 93.6186 25.3787 93.0304C25.3787 92.4421 24.8509 91.7108 25.5886 90.919C26.3263 90.1273 28.1197 89.3069 28.1197 89.3069Z" fill="#92E3A9"/>
<path d="M25.595 95.5201C24.4979 98.8366 22.5742 103.326 21.7792 105.495C20.8253 108.134 20.0049 110.042 19.5852 112.678C19.1655 115.314 18.9333 132.971 18.9333 132.971" stroke="#263238" stroke-linecap="round" stroke-linejoin="round"/>
<path d="M27.8558 89.6249C27.8558 89.6249 26.9591 90.3626 26.1705 93.5805C26.1196 93.7872 26.0592 94.0066 25.9956 94.2355" stroke="#263238" stroke-linecap="round" stroke-linejoin="round"/>
<path d="M9.98869 104.239C10.1003 104.464 10.1621 104.71 10.1697 104.961C10.1774 105.212 10.1308 105.461 10.0332 105.692C9.68025 106.398 9.23826 107.101 9.50218 107.454C9.76611 107.807 10.561 108.249 10.472 108.996C10.383 109.743 9.3273 111.244 9.98869 112.08C10.6501 112.917 11.7503 112.872 11.7948 113.797C11.8393 114.723 10.7264 115.473 11.0444 116.31C11.3623 117.146 13.1589 117.324 13.1589 117.899C13.1589 118.475 12.4562 119.089 13.0285 119.706C13.6009 120.322 16.3705 121.931 16.7679 121.27C17.1654 120.609 17.9635 118.78 17.4357 116.182C17.3498 115.747 16.7298 115.648 16.6408 115.031C16.5517 114.414 16.8156 113.314 16.3768 112.697C15.938 112.08 14.5262 111.861 14.4372 111.375C14.3481 110.888 14.965 109.702 14.3481 108.952C13.7313 108.201 12.2781 107.851 12.2781 107.362C12.2781 106.872 12.7201 106.258 12.1032 105.597C11.4864 104.936 9.98869 104.239 9.98869 104.239Z" fill="#92E3A9"/>
<path d="M12.0969 109.432C13.0158 112.201 14.6216 115.95 15.2767 117.763C16.0716 119.966 16.7616 121.578 17.1114 123.763C17.4612 125.947 17.6583 134.142 17.6583 134.142" stroke="#263238" stroke-linecap="round" stroke-linejoin="round"/>
<path d="M10.2081 104.503C10.2081 104.503 10.9585 105.12 11.6167 107.807C11.6613 107.982 11.7089 108.163 11.763 108.354" stroke="#263238" stroke-linecap="round" stroke-linejoin="round"/>
<path d="M32.6667 103.142C32.5061 103.335 32.3893 103.561 32.3245 103.803C32.2597 104.046 32.2485 104.3 32.2915 104.547C32.4728 105.314 32.7431 106.099 32.4028 106.382C32.0626 106.665 31.1945 106.913 31.1087 107.654C31.0228 108.395 31.7096 110.102 30.8734 110.767C30.0371 111.432 28.9655 111.133 28.7207 112.039C28.4758 112.945 29.3566 113.909 28.8765 114.653C28.3963 115.397 26.587 115.155 26.4535 115.715C26.3199 116.274 26.87 117.031 26.1705 117.502C25.4709 117.972 22.4184 118.907 22.1735 118.166C21.9287 117.425 21.5821 115.47 22.6855 113.063C22.8731 112.659 23.4995 112.707 23.7252 112.125C23.951 111.543 23.9478 110.414 24.517 109.915C25.0862 109.416 26.5107 109.521 26.7079 109.069C26.905 108.618 26.5743 107.32 27.3438 106.732C28.1133 106.144 29.611 106.134 29.7223 105.66C29.8336 105.187 29.5442 104.49 30.2978 103.988C31.0514 103.485 32.6667 103.142 32.6667 103.142Z" fill="#92E3A9"/>
<path d="M29.4393 107.711C27.913 110.198 25.49 113.483 24.4407 115.098C23.1688 117.06 21.633 118.316 21.28 120.519C20.9271 122.723 20.7363 130.898 20.7363 130.898" stroke="#263238" stroke-linecap="round" stroke-linejoin="round"/>
<path d="M32.406 103.349C32.406 103.349 31.5347 103.778 30.2787 106.242C30.1961 106.401 30.107 106.56 30.0085 106.741" stroke="#263238" stroke-linecap="round" stroke-linejoin="round"/>
<path d="M17.0319 138.844H21.9319C24.5107 137.515 26.3422 134.151 26.3422 130.205C26.3841 127.839 25.6615 125.523 24.2817 123.601H14.682C13.3068 125.524 12.5887 127.841 12.6342 130.205C12.6342 134.151 14.4531 137.515 17.0319 138.844Z" fill="white" stroke="#263238" stroke-linecap="round" stroke-linejoin="round"/>
<path d="M22.0209 138.844H17.0319V139.576H22.0209V138.844Z" fill="white" stroke="#263238" stroke-linecap="round" stroke-linejoin="round"/>
<path d="M90.0233 15.5649H11.9156V74.6831H90.0233V15.5649Z" stroke="#263238" stroke-linecap="round" stroke-linejoin="round"/>
<path d="M88.1981 17.1327H13.7376V73.1188H88.1981V17.1327Z" stroke="#263238" stroke-linecap="round" stroke-linejoin="round"/>
<path d="M36.4348 25.3491C36.4348 25.3491 24.269 24.4683 23.2451 26.3762C22.2213 28.284 22.9494 63.166 23.5377 63.6048C24.1259 64.0436 40.5399 64.3362 42.152 63.7511C43.7642 63.166 41.5701 27.6926 41.5701 26.6655C41.5701 25.6385 37.7544 25.1997 37.7544 25.1997" stroke="#263238" stroke-width="2" stroke-linecap="round" stroke-linejoin="round"/>
<path d="M24.5011 54.2214C24.5266 58.8193 24.6251 62.1898 24.8573 62.282C25.5886 62.5746 41.1249 63.8942 41.5637 62.4283C42.0025 60.9625 40.3904 27.8389 40.3904 27.8389" stroke="#263238" stroke-width="2" stroke-linecap="round" stroke-linejoin="round"/>
<path d="M39.8053 27.6926C39.8053 27.6926 25.0035 27.1076 24.8604 27.8389C24.7651 28.3063 24.4948 42.0397 24.498 52.0242" stroke="#263238" stroke-width="2" stroke-linecap="round" stroke-linejoin="round"/>
<path d="M25.2961 30.3318H39.6591" stroke="#263238" stroke-width="2" stroke-linecap="round" stroke-linejoin="round"/>
<path d="M38.3395 29.6673C37.4619 30.5958 38.3395 29.6673 38.9277 28.3413C39.516 27.0154 38.3395 28.6053 37.0199 29.6673C35.7003 30.7293 36.4348 29.9344 36.8736 28.4749C37.3124 27.0154 36.4348 28.4749 35.2615 29.4034C34.0881 30.3319 34.6764 29.9344 35.1152 28.3413C35.554 26.7483 35.1152 28.3413 33.3568 29.4034C31.5984 30.4654 32.476 30.4622 33.3568 28.8724C34.2376 27.2825 32.7717 28.8724 31.1596 29.4034C29.5474 29.9344 31.1596 29.4034 31.7447 27.9439C32.3297 26.4844 30.7176 28.3413 29.5474 29.1363C28.3773 29.9312 29.5474 29.1363 29.84 28.2078C30.1325 27.2793 29.1055 28.4749 27.9321 29.6673C26.7588 30.8597 27.9321 29.6673 28.0784 28.6053C28.2247 27.5432 26.7588 30.3319 26.7588 30.3319C26.7588 30.3319 27.1976 27.6768 26.9051 28.3413C26.7099 28.7674 26.4633 29.1679 26.1705 29.5338" stroke="#92E3A9" stroke-width="2" stroke-linecap="round" stroke-linejoin="round"/>
<path d="M33.2105 32.8215H26.0274V40.2972H33.2105V32.8215Z" stroke="#92E3A9" stroke-width="2" stroke-linecap="round" stroke-linejoin="round"/>
<path d="M27.4933 32.8215L26.3232 34.1411L28.8129 33.2635L26.3232 35.607L30.425 32.9678L26.3232 37.3654L31.8909 33.2635L26.0274 38.685L33.0642 33.8486L26.0274 40.2972L33.0642 35.607L28.0816 40.0046L33.2105 37.2191L29.9862 39.8583L33.0642 38.8313L32.476 39.8583" stroke="#92E3A9" stroke-width="2" stroke-linecap="round" stroke-linejoin="round"/>
<path d="M39.4015 55.6873H33.9101V61.4045H39.4015V55.6873Z" stroke="#92E3A9" stroke-width="2" stroke-linecap="round" stroke-linejoin="round"/>
<path d="M35.0293 55.6873L34.1326 56.6952L36.0373 56.0243L34.1326 57.8177L37.2711 55.7985L34.1326 59.1627L38.3903 56.0243L33.9101 60.1707L39.287 56.4727L33.9101 61.4045L39.287 57.8177L35.4777 61.1787L39.4015 59.0483L36.934 61.0674L39.287 60.282L38.8387 61.0674" stroke="#92E3A9" stroke-width="2" stroke-linecap="round" stroke-linejoin="round"/>
<path d="M25.8812 43.0826H39.9516" stroke="#263238" stroke-width="2" stroke-linecap="round" stroke-linejoin="round"/>
<path d="M25.7349 44.4022L39.6591 44.5485" stroke="#263238" stroke-width="2" stroke-linecap="round" stroke-linejoin="round"/>
<path d="M34.6764 33.2635H39.2203" stroke="#263238" stroke-width="2" stroke-linecap="round" stroke-linejoin="round"/>
<path d="M34.6764 35.022H39.2203" stroke="#263238" stroke-width="2" stroke-linecap="round" stroke-linejoin="round"/>
<path d="M34.6764 36.7804H39.2203" stroke="#263238" stroke-width="2" stroke-linecap="round" stroke-linejoin="round"/>
<path d="M34.6764 38.5388H39.2203" stroke="#263238" stroke-width="2" stroke-linecap="round" stroke-linejoin="round"/>
<path d="M39.6591 45.2799H26.0274V51.8747H39.6591V45.2799Z" stroke="#92E3A9" stroke-width="2" stroke-linecap="round" stroke-linejoin="round"/>
<path d="M25.8812 46.5995L27.7858 45.4262L25.5886 48.7967L29.2517 45.4262L26.0274 50.2658L31.7446 45.2799L26.762 51.1434L32.918 45.4262L28.2278 51.1434L34.9689 45.2799L29.5474 51.7285L36.2885 45.4262L31.1596 51.4359L38.0469 45.2799L32.7717 51.7285L39.6591 45.2799L34.6764 51.5822L39.3665 47.4803L36.2885 51.2897L39.3665 49.2387L38.7624 50.2181L38.1932 51.1434" stroke="#92E3A9" stroke-width="2" stroke-linecap="round" stroke-linejoin="round"/>
<path d="M26.6157 53.6362H39.2203" stroke="#263238" stroke-width="2" stroke-linecap="round" stroke-linejoin="round"/>
<path d="M26.3232 55.2484H30.425" stroke="#263238" stroke-width="2" stroke-linecap="round" stroke-linejoin="round"/>
<path d="M42.152 28.5734L52.2128 27.3364" stroke="#263238" stroke-width="2" stroke-linecap="round" stroke-linejoin="round"/>
<path d="M40.5399 35.7533H51.0903" stroke="#263238" stroke-width="2" stroke-linecap="round" stroke-linejoin="round"/>
<path d="M23.8302 49.0924L19.2863 50.7045" stroke="#263238" stroke-width="2" stroke-linecap="round" stroke-linejoin="round"/>
<path d="M36.7273 62.4283C36.7273 62.4283 35.8497 66.9722 41.8563 68.1519" stroke="#263238" stroke-width="2" stroke-linecap="round" stroke-linejoin="round"/>
<path d="M40.9787 66.9722L42.4445 68.2918L40.3904 68.8768" stroke="#263238" stroke-width="2" stroke-linecap="round" stroke-linejoin="round"/>
<path d="M49.7707 34.4337L52.1174 35.8996L50.0664 36.7804" stroke="#263238" stroke-width="2" stroke-linecap="round" stroke-linejoin="round"/>
<path d="M50.3081 26.8977L52.7979 27.1902L51.0395 28.8024" stroke="#263238" stroke-width="2" stroke-linecap="round" stroke-linejoin="round"/>
<path d="M19.8714 49.2386L17.3817 51.2896L20.4597 51.4359" stroke="#263238" stroke-width="2" stroke-linecap="round" stroke-linejoin="round"/>
<path d="M58.4196 34.4337H52.8487V40.2972H58.4196V34.4337Z" fill="#92E3A9"/>
<path d="M54.1683 35.7533L57.3926 35.8996" stroke="#263238" stroke-width="2" stroke-linecap="round" stroke-linejoin="round"/>
<path d="M54.1683 36.9266L57.3926 37.0729" stroke="#263238" stroke-width="2" stroke-linecap="round" stroke-linejoin="round"/>
<path d="M54.1683 38.1L57.3926 38.2462" stroke="#263238" stroke-width="2" stroke-linecap="round" stroke-linejoin="round"/>
<path d="M49.5604 42.3337L44.0278 42.9866L44.715 48.8097L50.2475 48.1568L49.5604 42.3337Z" fill="#92E3A9"/>
<path d="M45.4908 44.1447L48.7087 43.9126" stroke="#263238" stroke-width="2" stroke-linecap="round" stroke-linejoin="round"/>
<path d="M45.6275 45.3085L48.8454 45.0764" stroke="#263238" stroke-width="2" stroke-linecap="round" stroke-linejoin="round"/>
<path d="M45.7642 46.4722L48.9853 46.2401" stroke="#263238" stroke-width="2" stroke-linecap="round" stroke-linejoin="round"/>
<path d="M20.6908 52.3008L15.1583 52.9536L15.8454 58.7767L21.378 58.1238L20.6908 52.3008Z" fill="#92E3A9"/>
<path d="M16.6153 54.1101L19.8364 53.8779" stroke="#263238" stroke-width="2" stroke-linecap="round" stroke-linejoin="round"/>
<path d="M16.7521 55.277L19.9732 55.0449" stroke="#263238" stroke-width="2" stroke-linecap="round" stroke-linejoin="round"/>
<path d="M16.892 56.4409L20.1099 56.2087" stroke="#263238" stroke-width="2" stroke-linecap="round" stroke-linejoin="round"/>
<path d="M49.4768 64.5002L43.9371 63.9111L43.3171 69.7417L48.8568 70.3308L49.4768 64.5002Z" fill="#92E3A9"/>
<path d="M45.1155 65.3601L48.3048 65.8466" stroke="#263238" stroke-width="2" stroke-linecap="round" stroke-linejoin="round"/>
<path d="M44.9915 66.5271L48.1808 67.0136" stroke="#263238" stroke-width="2" stroke-linecap="round" stroke-linejoin="round"/>
<path d="M44.8675 67.694L48.0568 68.1805" stroke="#263238" stroke-width="2" stroke-linecap="round" stroke-linejoin="round"/>
<path d="M90.0201 74.6831H11.9156V76.68H90.0201V74.6831Z" fill="#263238" stroke="#263238" stroke-linecap="round" stroke-linejoin="round"/>
<path d="M121.363 88.9952V85.2686H110.148V88.9952C110.147 90.2161 109.726 91.3995 108.956 92.3467L108.466 92.954H123.045L122.555 92.3467C121.785 91.3995 121.364 90.2161 121.363 88.9952Z" fill="#263238" stroke="#263238" stroke-linecap="round" stroke-linejoin="round"/>
<path d="M120.727 88.9952V85.2686H109.512V88.9952C109.511 90.2161 109.09 91.3995 108.32 92.3467L107.83 92.954H122.409L121.919 92.3467C121.149 91.3995 120.728 90.2161 120.727 88.9952V88.9952Z" fill="white" stroke="#263238" stroke-linecap="round" stroke-linejoin="round"/>
<path d="M120.816 86.321H109.557V87.4626H120.816V86.321Z" fill="#263238"/>
<path d="M134.96 53.3438H95.2763C93.7871 53.3438 92.5798 54.551 92.5798 56.0402V83.7455C92.5798 85.2347 93.7871 86.4419 95.2763 86.4419H134.96C136.449 86.4419 137.656 85.2347 137.656 83.7455V56.0402C137.656 54.551 136.449 53.3438 134.96 53.3438Z" fill="#263238" stroke="#263238" stroke-linecap="round" stroke-linejoin="round"/>
<path d="M136.171 53.3438H96.4878C94.9986 53.3438 93.7913 54.551 93.7913 56.0402V83.7455C93.7913 85.2347 94.9986 86.4419 96.4878 86.4419H136.171C137.66 86.4419 138.868 85.2347 138.868 83.7455V56.0402C138.868 54.551 137.66 53.3438 136.171 53.3438Z" fill="#263238" stroke="#263238" stroke-linecap="round" stroke-linejoin="round"/>
<path d="M92.5798 81.2971H137.659V83.7455C137.659 84.4607 137.375 85.1465 136.87 85.6522C136.364 86.1579 135.678 86.442 134.963 86.442H95.2794C94.5643 86.442 93.8785 86.1579 93.3728 85.6522C92.8671 85.1465 92.583 84.4607 92.583 83.7455V81.2971H92.5798Z" fill="white" stroke="#263238" stroke-linecap="round" stroke-linejoin="round"/>
<path d="M135.389 55.4043H94.847V78.7883H135.389V55.4043Z" fill="white"/>
<path d="M108.956 57.84H100.981C100.447 57.84 100.014 58.2728 100.014 58.8066V75.2778C100.014 75.8117 100.447 76.2444 100.981 76.2444H108.956C109.489 76.2444 109.922 75.8117 109.922 75.2778V58.8066C109.922 58.2728 109.489 57.84 108.956 57.84Z" fill="#263238"/>
<path d="M109.092 59.3821H100.847V74.6958H109.092V59.3821Z" fill="#92E3A9"/>
<path d="M119.961 59.6398H112.498V60.4125H119.961V59.6398Z" fill="#263238"/>
<path d="M116.104 61.3154H112.628V64.9181H116.104V61.3154Z" fill="#92E3A9"/>
<path d="M119.446 72.381H117.586V74.3111H119.446V72.381Z" fill="#92E3A9"/>
<path d="M119.792 67.4906H112.714V71.0933H119.792V67.4906Z" fill="#92E3A9"/>
<path d="M116.746 61.573H119.576" stroke="#263238" stroke-linecap="round" stroke-linejoin="round"/>
<path d="M116.746 62.4729H119.576" stroke="#263238" stroke-linecap="round" stroke-linejoin="round"/>
<path d="M116.746 63.3727H119.576" stroke="#263238" stroke-linecap="round" stroke-linejoin="round"/>
<path d="M116.746 64.2726H119.576" stroke="#263238" stroke-linecap="round" stroke-linejoin="round"/>
<path d="M112.841 66.3331H119.662" stroke="#263238" stroke-linecap="round" stroke-linejoin="round"/>
<path d="M112.841 71.9962H119.662" stroke="#263238" stroke-linecap="round" stroke-linejoin="round"/>
<path d="M120.606 58.8701H111.856V75.0869H120.606V58.8701Z" stroke="#263238" stroke-linecap="round" stroke-linejoin="round"/>
<path d="M131.287 58.8701H123.052V64.918H131.287V58.8701Z" fill="#BFBFBF"/>
<path d="M131.287 58.8701H123.052V60.1579H131.287V58.8701Z" fill="#263238"/>
<path d="M125.843 61.0929H123.691V63.1756H125.843V61.0929Z" stroke="#263238" stroke-linecap="round" stroke-linejoin="round"/>
<path d="M130.149 61.0929H127.996V63.1756H130.149V61.0929Z" stroke="#263238" stroke-linecap="round" stroke-linejoin="round"/>
<path d="M130.495 59.6015C130.495 59.6644 130.477 59.7259 130.442 59.7782C130.407 59.8305 130.357 59.8712 130.299 59.8953C130.241 59.9194 130.177 59.9257 130.115 59.9134C130.054 59.9011 129.997 59.8709 129.953 59.8264C129.908 59.7819 129.878 59.7253 129.865 59.6636C129.853 59.6019 129.86 59.538 129.884 59.4799C129.908 59.4218 129.948 59.3721 130.001 59.3372C130.053 59.3022 130.114 59.2836 130.177 59.2836C130.262 59.2836 130.343 59.3171 130.402 59.3767C130.462 59.4363 130.495 59.5172 130.495 59.6015Z" fill="white"/>
<path d="M128.689 59.9132C128.861 59.9132 129.001 59.7736 129.001 59.6015C129.001 59.4294 128.861 59.2899 128.689 59.2899C128.517 59.2899 128.378 59.4294 128.378 59.6015C128.378 59.7736 128.517 59.9132 128.689 59.9132Z" fill="white"/>
<path d="M130.629 68.1964H124.323V72.8293H130.629V68.1964Z" fill="#BFBFBF"/>
<path d="M130.629 68.1964H124.323V69.1821H130.629V68.1964Z" fill="#263238"/>
<path d="M130.025 68.7561C130.025 68.804 130.012 68.851 129.986 68.8912C129.959 68.9313 129.922 68.9628 129.878 68.9816C129.834 69.0004 129.785 69.0056 129.738 68.9966C129.691 68.9877 129.647 68.9649 129.613 68.9312C129.579 68.8976 129.556 68.8545 129.546 68.8076C129.537 68.7606 129.541 68.7119 129.559 68.6675C129.578 68.6232 129.609 68.5852 129.648 68.5585C129.688 68.5318 129.735 68.5176 129.783 68.5176C129.847 68.5176 129.908 68.5426 129.953 68.5872C129.998 68.6319 130.024 68.6925 130.025 68.7561V68.7561Z" fill="white"/>
<path d="M128.88 68.7561C128.88 68.8193 128.855 68.88 128.81 68.9247C128.765 68.9694 128.705 68.9945 128.641 68.9945C128.578 68.9945 128.518 68.9694 128.473 68.9247C128.428 68.88 128.403 68.8193 128.403 68.7561C128.403 68.6928 128.428 68.6322 128.473 68.5874C128.518 68.5427 128.578 68.5176 128.641 68.5176C128.705 68.5176 128.765 68.5427 128.81 68.5874C128.855 68.6322 128.88 68.6928 128.88 68.7561V68.7561Z" fill="white"/>
<path d="M98.8312 56.6317H96.1825V77.4051H98.8312V56.6317Z" fill="#BFBFBF"/>
<path d="M98.8312 56.6317H96.1825V57.5856H98.8312V56.6317Z" fill="#263238"/>
<path d="M98.0903 58.2216H96.8184V59.7065H98.0903V58.2216Z" stroke="#263238" stroke-linecap="round" stroke-linejoin="round"/>
<path d="M98.0903 60.6572H96.8184V62.1422H98.0903V60.6572Z" stroke="#263238" stroke-linecap="round" stroke-linejoin="round"/>
<path d="M98.0903 63.0961H96.8184V64.581H98.0903V63.0961Z" stroke="#263238" stroke-linecap="round" stroke-linejoin="round"/>
<path d="M98.0903 65.535H96.8184V67.02H98.0903V65.535Z" stroke="#263238" stroke-linecap="round" stroke-linejoin="round"/>
<path d="M98.0903 67.9707H96.8184V69.4557H98.0903V67.9707Z" stroke="#263238" stroke-linecap="round" stroke-linejoin="round"/>
<path d="M98.0903 70.4095H96.8184V71.8945H98.0903V70.4095Z" stroke="#263238" stroke-linecap="round" stroke-linejoin="round"/>
<path d="M98.0903 72.8484H96.8184V74.3333H98.0903V72.8484Z" stroke="#263238" stroke-linecap="round" stroke-linejoin="round"/>
<path d="M98.0903 75.2841H96.8184V76.769H98.0903V75.2841Z" stroke="#263238" stroke-linecap="round" stroke-linejoin="round"/>
<path d="M134.235 56.4186H100.529V57.2676H134.235V56.4186Z" fill="#BFBFBF"/>
<path d="M134.235 76.9821H100.529V77.8311H134.235V76.9821Z" fill="#BFBFBF"/>
<path d="M122.412 92.9541H107.83V93.6187H122.412V92.9541Z" fill="#263238" stroke="#263238" stroke-linecap="round" stroke-linejoin="round"/>
<path d="M131.945 92.4103H98.0903V93.6186H131.945V92.4103Z" fill="white" stroke="#263238" stroke-linecap="round" stroke-linejoin="round"/>
<path d="M67.7523 139.576H66.3755L65.6855 97.3898H68.4423L67.7523 139.576Z" fill="white" stroke="#263238" stroke-linecap="round" stroke-linejoin="round"/>
<path d="M67.7523 139.576H67.145L67.2276 97.3898H68.4423L67.7523 139.576Z" fill="#263238" stroke="#263238" stroke-linecap="round" stroke-linejoin="round"/>
<path d="M87.3809 139.576H86.0041L85.3141 97.3898H88.0709L87.3809 139.576Z" fill="white" stroke="#263238" stroke-linecap="round" stroke-linejoin="round"/>
<path d="M87.381 139.576H86.7736L86.8563 97.3898H88.071L87.381 139.576Z" fill="#263238" stroke="#263238" stroke-linecap="round" stroke-linejoin="round"/>
<path d="M80.3537 139.576H78.9737L78.2869 97.3898H81.0405L80.3537 139.576Z" fill="#263238" stroke="#263238" stroke-linecap="round" stroke-linejoin="round"/>
<path d="M80.3537 139.576H79.7463L79.8258 97.3898H81.0405L80.3537 139.576Z" fill="#263238" stroke="#263238" stroke-linecap="round" stroke-linejoin="round"/>
<path d="M93.6165 139.576H92.2365L91.5496 97.3898H94.3033L93.6165 139.576Z" fill="#263238" stroke="#263238" stroke-linecap="round" stroke-linejoin="round"/>
<path d="M93.6165 139.576H93.006L93.0886 97.3898H94.3033L93.6165 139.576Z" fill="#263238" stroke="#263238" stroke-linecap="round" stroke-linejoin="round"/>
<path d="M94.6499 98.0353H73.0339V124.427H94.6499V98.0353Z" fill="#263238" stroke="#263238" stroke-linecap="round" stroke-linejoin="round"/>
<path d="M88.6815 98.0353H67.0654V124.427H88.6815V98.0353Z" fill="white" stroke="#263238" stroke-linecap="round" stroke-linejoin="round"/>
<path d="M132.34 139.576H130.963L130.273 97.3898H133.03L132.34 139.576Z" fill="white" stroke="#263238" stroke-linecap="round" stroke-linejoin="round"/>
<path d="M132.34 139.576H131.732L131.815 97.3898H133.03L132.34 139.576Z" fill="#263238" stroke="#263238" stroke-linecap="round" stroke-linejoin="round"/>
<path d="M144.941 139.576H143.561L142.874 97.3898H145.628L144.941 139.576Z" fill="#263238" stroke="#263238" stroke-linecap="round" stroke-linejoin="round"/>
<path d="M144.941 139.576H144.334L144.413 97.3898H145.628L144.941 139.576Z" fill="#263238" stroke="#263238" stroke-linecap="round" stroke-linejoin="round"/>
<path d="M146.499 95.7999H63.8698V98.7031H146.499V95.7999Z" fill="white" stroke="#263238" stroke-linecap="round" stroke-linejoin="round"/>
<path d="M146.499 95.7999H63.8698V97.2499H146.499V95.7999Z" fill="#263238" stroke="#263238" stroke-linecap="round" stroke-linejoin="round"/>
<path d="M146.499 95.7999H134.302V98.7031H146.499V95.7999Z" fill="#263238" stroke="#263238" stroke-linecap="round" stroke-linejoin="round"/>
<path d="M149.17 93.4692H61.6281V96.3724H149.17V93.4692Z" fill="white" stroke="#263238" stroke-linecap="round" stroke-linejoin="round"/>
<path d="M149.17 93.4692H136.973V96.3724H149.17V93.4692Z" fill="#263238" stroke="#263238" stroke-linecap="round" stroke-linejoin="round"/>
<path d="M87.3587 100.57H68.4391V109.791H87.3587V100.57Z" fill="white" stroke="#263238" stroke-linecap="round" stroke-linejoin="round"/>
<path d="M79.9658 104.226H75.8321V105.657H79.9658V104.226Z" fill="#263238" stroke="#263238" stroke-linecap="round" stroke-linejoin="round"/>
<path d="M87.3587 112.176H68.4391V121.397H87.3587V112.176Z" fill="white" stroke="#263238" stroke-linecap="round" stroke-linejoin="round"/>
<path d="M79.9658 115.832H75.8321V117.263H79.9658V115.832Z" fill="#263238" stroke="#263238" stroke-linecap="round" stroke-linejoin="round"/>
<path d="M116.482 114.923H122.136V103.552H116.482V114.923Z" fill="#263238"/>
<path d="M117.897 126.631H120.724V110.885H117.897V126.631Z" fill="#263238"/>
<path d="M120.46 125.419C120.46 125.419 122.835 128.116 128.94 129.054C132.165 129.55 135.523 130.167 138.435 131.709C140.308 132.701 144.038 134.873 144.038 137.353C144.041 137.717 143.954 138.077 143.786 138.4C143.617 138.723 143.372 139 143.072 139.206C142.772 139.412 142.425 139.541 142.064 139.582C141.702 139.624 141.335 139.575 140.996 139.442C140.657 139.308 140.356 139.093 140.12 138.816C139.883 138.539 139.718 138.209 139.639 137.853C139.56 137.497 139.57 137.128 139.667 136.777C139.764 136.426 139.946 136.104 140.197 135.84C138.672 133.545 136.307 131.941 133.611 131.372C128.969 130.361 125.579 130.774 119.048 126.431L120.46 125.419Z" fill="#263238"/>
<path d="M118.441 125.419C118.441 125.419 116.066 128.116 109.96 129.054C106.736 129.55 103.378 130.167 100.466 131.709C98.5896 132.701 94.8629 134.873 94.8629 137.353C94.8594 137.718 94.9456 138.078 95.1138 138.401C95.282 138.724 95.5271 139.002 95.8276 139.208C96.128 139.415 96.4746 139.544 96.8369 139.586C97.1992 139.627 97.566 139.579 97.9052 139.445C98.2444 139.311 98.5455 139.096 98.7821 138.819C99.0187 138.541 99.1836 138.21 99.2622 137.854C99.3407 137.498 99.3306 137.128 99.2328 136.777C99.1349 136.425 98.9522 136.104 98.7009 135.84C100.227 133.546 102.591 131.942 105.286 131.372C109.932 130.361 113.321 130.774 119.853 126.431L118.441 125.419Z" fill="#263238"/>
<path d="M118.345 139.576H120.479C120.595 139.576 120.689 139.482 120.689 139.366V135.614C120.689 135.498 120.595 135.404 120.479 135.404H118.345C118.23 135.404 118.136 135.498 118.136 135.614V139.366C118.136 139.482 118.23 139.576 118.345 139.576Z" fill="#263238"/>
<path d="M118.807 139.576H120.018V125.798H118.807V139.576Z" fill="#263238"/>
<path d="M133.001 70.7211C132.295 74.4852 131.87 78.2966 131.729 82.1237C131.637 85.0745 131.589 87.6024 131.545 89.8314C131.411 96.7601 131.335 100.601 130.244 101.635C130.104 101.73 129.201 102.287 127.312 102.446C126.785 102.49 125.106 102.512 122.823 102.525C115.582 102.503 107.973 102.442 107.852 102.442H107.41C107.391 102.442 107.375 102.477 107.359 102.493C103.009 102.468 101.89 102.442 101.811 102.442H101.369C100.456 103.234 101 104.252 101.795 104.258C102.389 104.258 112.752 104.35 119.84 104.35C121.093 104.35 122.272 104.35 123.319 104.35H128.107C131.818 104.35 134.893 104.325 135.739 104.255C138.362 104.039 139.539 103.151 139.663 103.05C141.411 101.498 141.478 98.0925 141.64 89.8696C141.682 87.6438 141.733 85.119 141.822 82.1809C141.965 78.3376 142.4 74.5108 143.125 70.7338L133.001 70.7211Z" fill="#263238"/>
<path d="M76.786 130.09L77.5014 133.827C77.5014 133.827 76.8655 135.178 74.4011 136.291C71.9368 137.404 70.7444 137.881 70.7444 138.199C70.7444 138.517 70.5854 139.232 71.2214 139.471C71.8573 139.709 85.3713 139.471 85.3713 139.471C85.3713 139.471 86.0868 139.153 86.0868 137.642C86.0868 136.132 85.4508 133.35 85.4508 132.714C85.4508 132.078 85.0025 130.545 85.0025 130.329C85.0025 130.113 79.5683 130.408 79.5683 130.408C79.5683 130.408 77.9784 128.898 76.786 130.09Z" fill="white" stroke="#263238" stroke-linecap="round" stroke-linejoin="round"/>
<path d="M79.5682 130.408C79.5682 130.408 79.9657 133.986 80.2042 134.224C80.4427 134.463 85.4508 134.463 85.4508 134.463" fill="white"/>
<path d="M79.5682 130.408C79.5682 130.408 79.9657 133.986 80.2042 134.224C80.4427 134.463 85.4508 134.463 85.4508 134.463" stroke="#263238" stroke-linecap="round" stroke-linejoin="round"/>
<path d="M85.4508 132.714L79.8862 132.793" stroke="#263238" stroke-linecap="round" stroke-linejoin="round"/>
<path d="M70.7444 138.835H85.9278" stroke="#263238" stroke-linecap="round" stroke-linejoin="round"/>
<path d="M86.7228 85.2812C86.7228 85.2812 82.3156 100.118 81.775 102.163C81.2345 104.207 84.357 122.16 84.357 122.481C84.357 122.802 84.7863 123.772 84.7863 124.847C84.7863 125.922 84.357 126.243 84.5732 126.567C84.7895 126.892 85.5272 127.642 85.4318 128.288C85.3988 128.785 85.1701 129.249 84.7958 129.579C84.5586 129.826 84.2636 130.011 83.9373 130.116H81.3553C81.3553 130.116 80.7194 125.276 78.9896 112.484C77.2598 99.6919 80.0675 92.3785 80.6049 90.0127C80.9708 88.4865 81.5118 87.0077 82.217 85.6056L86.7228 85.2812Z" fill="#263238" stroke="#263238" stroke-linecap="round" stroke-linejoin="round"/>
<path d="M73.1292 130.09L73.8447 133.827C73.8447 133.827 73.2087 135.178 70.7444 136.291C68.2801 137.404 67.0877 137.881 67.0877 138.199C67.0877 138.517 66.9287 139.232 67.5646 139.471C68.2006 139.709 81.7146 139.471 81.7146 139.471C81.7146 139.471 82.43 139.153 82.43 137.642C82.43 136.132 81.7941 133.35 81.7941 132.714C81.7941 132.078 81.3457 130.545 81.3457 130.329C81.3457 130.113 75.9115 130.408 75.9115 130.408C75.9115 130.408 74.3216 128.898 73.1292 130.09Z" fill="white" stroke="#263238" stroke-linecap="round" stroke-linejoin="round"/>
<path d="M75.9116 130.408C75.9116 130.408 76.309 133.986 76.5475 134.224C76.786 134.463 81.7941 134.463 81.7941 134.463" fill="white"/>
<path d="M75.9116 130.408C75.9116 130.408 76.309 133.986 76.5475 134.224C76.786 134.463 81.7941 134.463 81.7941 134.463" stroke="#263238" stroke-linecap="round" stroke-linejoin="round"/>
<path d="M81.7941 132.714L76.2295 132.793" stroke="#263238" stroke-linecap="round" stroke-linejoin="round"/>
<path d="M67.0877 138.835H82.2711" stroke="#263238" stroke-linecap="round" stroke-linejoin="round"/>
<path d="M68.9828 85.2812C68.9828 85.2812 68.8747 94.6361 69.4121 98.614C69.9495 102.592 71.9941 111.839 72.3152 116.891C72.6364 121.944 73.1769 124.313 73.1769 124.313C73.1769 124.313 72.4138 124.949 72.4138 125.585C72.4138 126.221 72.8431 126.221 72.7318 127.2C72.6205 128.179 72.1944 128.488 72.5187 128.92C72.8431 129.353 73.0561 130.208 74.1309 130.424C75.2056 130.641 80.2583 130.532 81.333 130.316C82.4078 130.1 82.9452 129.025 82.9452 128.167C82.9452 127.308 82.6272 126.663 82.6272 125.693C82.6272 124.723 83.1646 123.868 83.1646 123.222C83.1646 122.577 82.9484 122.252 82.9484 121.607C82.9484 120.961 81.5524 110.643 81.5524 108.494C81.5524 106.344 81.4443 99.0305 81.7655 97.2022C82.0866 95.3738 83.702 86.6676 83.702 86.6676L68.9828 85.2812Z" fill="#92E3A9" stroke="#263238" stroke-linecap="round" stroke-linejoin="round"/>
<path d="M75.7971 88.4356C77.0739 88.8735 78.4049 89.1335 79.7527 89.2082C80.7881 89.2371 81.8206 89.3338 82.8434 89.4976L83.4221 86.7948L75.7971 88.4356Z" fill="#263238" stroke="#263238" stroke-linecap="round" stroke-linejoin="round"/>
<path d="M74.6174 88.8998C74.6174 88.8998 75.1452 103.673 76.2073 108.598C77.2693 113.524 78.6684 121.613 78.3186 122.669C77.9688 123.725 77.4378 126.186 77.4378 126.186C77.4378 126.186 79.3743 125.836 79.3743 126.888C79.3743 127.941 76.5602 128.65 77.2629 129.178C77.9657 129.706 78.6652 130.284 78.6652 130.284" stroke="#263238" stroke-linecap="round" stroke-linejoin="round"/>
<path d="M80.8656 126.656C80.8656 126.656 75.0276 127.61 76.6842 127.928C78.3409 128.246 81.4984 127.849 81.6574 127.454C81.8164 127.06 81.3394 126.577 80.8656 126.656Z" fill="#263238" stroke="#263238" stroke-linecap="round" stroke-linejoin="round"/>
<path d="M55.0968 24.516L54.9346 31.1172L61.1606 31.0631L61.2147 24.4619L55.0968 24.516Z" fill="#92E3A9"/>
<path d="M62.1813 36.6976C62.1813 36.6976 60.8394 35.3558 60.248 34.122C59.6566 32.8883 58.8012 32.1379 58.8012 31.2793C58.8012 30.4208 59.1764 28.4175 59.0143 27.629C58.8521 26.8404 59.0143 25.1615 59.5516 25.1615C59.6764 25.1614 59.7996 25.1897 59.9119 25.2441C60.0243 25.2985 60.1228 25.3776 60.2002 25.4755C60.2776 25.5733 60.3318 25.6875 60.3588 25.8093C60.3858 25.9312 60.3849 26.0576 60.3561 26.179C60.248 26.7164 60.6741 28.5956 60.6741 28.5956C60.6741 28.5956 61.1034 24.9993 61.1574 24.7799C61.2115 24.5605 61.9619 24.5637 62.2862 24.7258C62.6106 24.888 62.9826 24.8308 62.9826 25.5303C62.9826 26.2299 62.8204 27.0312 62.8204 27.1933C62.8204 27.3555 64.3245 28.214 64.3785 28.8563C64.4326 29.4987 64.2704 31.0567 63.8952 31.7181C63.6385 32.1183 63.4253 32.5446 63.2592 32.99C63.2052 33.2031 64.7092 35.4575 64.7092 35.4575L62.1813 36.6976Z" fill="white" stroke="#263238" stroke-linecap="round" stroke-linejoin="round"/>
<path d="M64.6838 34.4305L61.0271 37.2256C61.0271 37.2256 67.2626 50.1258 67.4788 50.5424C67.6951 50.9589 72.2071 53.7699 72.2071 53.7699L78.98 45.3816C78.98 45.3816 70.4869 42.6947 70.2738 42.3736C70.0608 42.0524 64.6838 34.4305 64.6838 34.4305Z" fill="#263238" stroke="#263238" stroke-linecap="round" stroke-linejoin="round"/>
<path d="M68.9956 81.8376L68.6776 86.8457C68.6776 86.8457 72.8113 88.5945 77.263 88.5151C81.7146 88.4356 87.6767 86.6867 87.6767 86.6867L88.5511 81.7581C88.5511 81.7581 77.8194 82.6325 74.5602 82.3145C71.3009 81.9965 68.9956 81.8376 68.9956 81.8376Z" fill="white" stroke="#263238" stroke-linecap="round" stroke-linejoin="round"/>
<path d="M65.8158 80.2477L65.5773 81.6786C65.5773 81.6786 68.9447 83.5165 76.3885 84.2224C80.9697 84.6447 85.5892 84.1584 89.982 82.7915L90.0615 80.3272C86.1029 81.2709 82.0479 81.751 77.9784 81.7581C73.8847 81.6521 69.8111 81.1462 65.8158 80.2477Z" fill="#263238" stroke="#263238" stroke-linecap="round" stroke-linejoin="round"/>
<path d="M71.8573 50.6759C71.8573 50.6759 69.234 55.2865 68.3596 58.8638C67.4851 62.441 65.7363 78.9758 65.4978 79.9297C65.2593 80.8836 70.8239 82.7915 74.4806 82.871C78.1373 82.9505 86.3252 83.1095 87.7561 82.553C89.187 81.9965 90.5384 81.2016 90.5384 80.3272C90.5384 79.4527 90.6179 76.1935 90.6179 73.5702C90.6179 70.9469 89.823 57.1149 89.1075 53.9351C88.3921 50.7554 87.9151 48.5295 87.6766 48.1321C87.4381 47.7346 85.6893 45.8267 82.112 46.0652C79.32 46.2709 76.6068 47.0849 74.1626 48.45C73.2558 49.0338 72.4725 49.7901 71.8573 50.6759V50.6759Z" fill="#263238" stroke="#263238" stroke-linecap="round" stroke-linejoin="round"/>
<path d="M47.8819 55.8144C47.8819 55.8144 46.5909 56.3518 46.4828 57.6428C46.3747 58.9338 48.7436 60.2216 50.1395 62.158C51.5355 64.0945 53.3638 66.1232 53.3638 66.1232L56.162 69.993L59.4944 67.198L50.8932 57.2199C50.8932 57.2199 51.3224 56.2659 50.785 55.9289C50.3328 55.7184 49.8433 55.6 49.345 55.5803C48.8466 55.5607 48.3493 55.6402 47.8819 55.8144V55.8144Z" fill="white" stroke="#263238" stroke-linecap="round" stroke-linejoin="round"/>
<path d="M48.0981 58.8256L57.7869 55.5981C57.7869 55.5981 58.4228 58.2882 61.3323 61.0832C63.0768 62.764 64.9466 64.3096 66.9255 65.7066L58.2161 70.6511L48.0981 58.8256Z" fill="white" stroke="#263238" stroke-linecap="round" stroke-linejoin="round"/>
<path d="M48.0982 58.8257C48.525 58.3467 48.7879 57.7441 48.8486 57.1054C48.8773 56.8104 48.7958 56.5151 48.6196 56.2767C48.4434 56.0383 48.1851 55.8736 47.8947 55.8144L57.4626 53.0194C57.4626 53.0194 59.2909 53.6554 57.7805 55.5982L48.0982 58.8257Z" fill="white" stroke="#263238" stroke-linecap="round" stroke-linejoin="round"/>
<path d="M60.919 69.0485C60.919 69.0485 58.7695 68.7305 58.6614 68.0946C58.5532 67.4586 58.124 66.0532 57.7074 65.5158C57.2909 64.9784 55.2336 63.9037 54.5881 63.15C53.9426 62.3964 53.5133 61.3217 53.084 61.4298C52.6548 61.5379 52.0093 61.9672 52.2223 62.3837C52.4354 62.8003 53.4052 64.6445 53.4052 64.6445L53.6214 65.395C53.6214 65.395 51.685 65.077 51.3638 64.9657C51.2701 64.9391 51.1714 64.9359 51.0762 64.9564C50.981 64.9769 50.8923 65.0205 50.8179 65.0833C50.7435 65.1461 50.6856 65.2262 50.6494 65.3166C50.6132 65.4069 50.5997 65.5048 50.6102 65.6016C50.6102 66.139 50.1809 66.139 50.7183 66.4602C51.2557 66.7813 51.9012 67.2138 51.9012 67.2138C51.9012 67.2138 52.6548 68.934 52.8551 69.2552C53.0554 69.5764 54.7916 70.3331 55.1127 70.5462C55.4339 70.7592 57.1573 71.2998 58.0159 71.5001C58.8744 71.7004 60.8109 72.4699 60.8109 72.4699L61.3482 69.9961L60.919 69.0485Z" fill="white" stroke="#263238" stroke-linecap="round" stroke-linejoin="round"/>
<path d="M83.7115 54.2118C83.7115 54.2118 83.4953 63.3504 83.4953 63.7797C83.4953 64.2089 83.8133 73.0264 82.8593 73.7768C81.9054 74.5273 77.1612 75.4971 70.2802 75.284C63.3992 75.071 60.3879 73.5638 60.3879 73.5638L60.9253 69.0485L74.0418 68.0946C74.0418 68.0946 72.6459 58.0974 72.859 54.6569C73.072 51.2164 75.8702 49.3881 75.8702 49.3881" fill="#263238"/>
<path d="M83.7115 54.2118C83.7115 54.2118 83.4953 63.3504 83.4953 63.7797C83.4953 64.2089 83.8133 73.0264 82.8593 73.7768C81.9054 74.5273 77.1612 75.4971 70.2802 75.284C63.3992 75.071 60.3879 73.5638 60.3879 73.5638L60.9253 69.0485L74.0418 68.0946C74.0418 68.0946 72.6459 58.0974 72.859 54.6569C73.072 51.2164 75.8702 49.3881 75.8702 49.3881" stroke="#263238" stroke-linecap="round" stroke-linejoin="round"/>
<path d="M69.2341 75.6848C69.2341 75.6848 82.252 76.1395 82.9388 74.5401C83.6257 72.9407 83.6225 57.1818 83.6225 57.1818" stroke="#707070" stroke-linecap="round" stroke-linejoin="round"/>
<path d="M74.9576 51.2419C74.9576 51.2419 72.2135 54.2118 72.6714 58.0943C73.1293 61.9768 74.045 68.0788 74.045 68.0788L69.0178 68.3745" stroke="#707070" stroke-linecap="round" stroke-linejoin="round"/>
<path d="M69.4026 26.4143C69.4026 26.4143 67.5997 29.5336 67.9463 29.947C68.2929 30.3603 68.0162 31.1267 68.0162 31.1267C68.0162 31.1267 66.2133 32.513 66.3532 32.9964C66.4931 33.4797 67.9431 34.7993 67.9431 34.7993C67.9431 34.7993 68.2197 38.5419 68.579 38.8885C68.9383 39.2351 71.2818 39.6484 71.7588 39.7184C72.022 39.7509 72.2791 39.8216 72.5219 39.9282L73.9051 47.4102L81.6669 40.4147L80.4205 37.0887C80.4205 37.0887 79.7273 32.637 79.7845 30.5766C79.8417 28.5161 76.2486 26.0009 74.1023 25.3777C71.9559 24.7544 69.4026 26.4143 69.4026 26.4143Z" fill="white" stroke="#263238" stroke-linecap="round" stroke-linejoin="round"/>
<path d="M70.8557 22.1853C70.8557 22.1853 69.056 20.3156 66.9064 21.7719C64.7569 23.2282 65.3833 25.5876 67.323 26.4144C69.2626 27.2411 71.5489 26.621 70.7889 27.4541C70.029 28.2872 69.835 30.087 70.9956 30.4336C72.1562 30.7802 71.9654 32.0966 71.9654 32.6594C71.9654 33.2222 72.9194 33.1459 73.1451 32.6594C73.3709 32.1729 73.9051 30.8597 75.2215 31.4129C76.5379 31.9662 76.4712 35.0156 75.9847 35.7788C75.4982 36.5419 75.0148 36.4719 75.0148 36.4719C75.0148 36.4719 75.778 36.7486 75.2915 37.6485L74.8081 38.5515C74.8081 38.5515 75.9147 39.8679 78.6875 39.3814C81.4602 38.8949 82.0834 37.6485 81.6669 36.6118C81.2503 35.5752 80.2805 35.4322 81.3203 33.9091C82.3601 32.3859 84.9262 30.5798 84.7163 27.1171C84.5796 24.8308 79.174 22.6654 79.174 22.6654C79.174 22.6654 80.4204 20.5858 77.5841 19.2694C74.7477 17.953 71.4885 19.4793 71.6952 20.8593C71.9018 22.2393 70.8557 22.1853 70.8557 22.1853Z" fill="#263238" stroke="#263238" stroke-linecap="round" stroke-linejoin="round"/>
<path d="M67.9272 29.699C67.9272 29.699 67.0464 29.4637 66.9732 29.8803C66.9001 30.2968 66.9732 32.3732 66.9732 32.3732C67.2833 32.566 67.6525 32.6405 68.013 32.5831C68.4995 32.4432 68.2197 30.7102 68.2197 30.7102" stroke="#263238" stroke-linecap="round" stroke-linejoin="round"/>
<path d="M73.4218 32.0266L67.04 30.971L67.0463 30.5703L73.4218 32.0266Z" fill="#263238" stroke="#263238" stroke-linecap="round" stroke-linejoin="round"/>
<path d="M82.5699 38.2653C82.5699 38.2653 79.034 40.8281 76.6079 43.461C74.1817 46.0938 71.2722 49.0065 71.1419 49.9064C71.0115 50.8062 71.2786 52.1926 72.665 50.7363C74.0513 49.2799 76.6142 47.3435 78.5571 47.2036C80.4999 47.0637 83.4762 48.0367 84.9993 48.2433C86.5224 48.45 87.4954 48.8793 88.0487 48.0367C88.6019 47.194 87.1488 45.3339 87.1488 44.3609C87.1488 43.3878 87.3555 41.728 86.6623 40.5451C85.9691 39.3623 83.7464 37.9187 82.5699 38.2653Z" fill="#757575" stroke="#263238" stroke-linecap="round" stroke-linejoin="round"/>
<path d="M87.0979 41.6963C86.9011 42.3697 86.6325 43.02 86.2966 43.6359C85.8928 44.2369 80.2106 45.3753 80.2106 45.3753C80.2106 45.3753 84.8912 45.1082 85.7593 45.1082C86.6273 45.1082 87.6321 45.9095 87.6321 45.9095L87.1647 44.6376C87.1647 44.6376 87.3587 42.3004 87.0979 41.6963Z" fill="#263238" stroke="#263238" stroke-linecap="round" stroke-linejoin="round"/>
<path d="M4.68488 139.576H150" stroke="#263238" stroke-linecap="round" stroke-linejoin="round"/>
</svg>
