<svg width="35" height="44" viewBox="0 0 35 44" fill="none" xmlns="http://www.w3.org/2000/svg">
<path d="M17.5 21.875C18.7031 21.875 19.7334 21.4462 20.5909 20.5887C21.447 19.7327 21.875 18.7031 21.875 17.5C21.875 16.2969 21.447 15.2666 20.5909 14.4091C19.7334 13.553 18.7031 13.125 17.5 13.125C16.2969 13.125 15.2673 13.553 14.4113 14.4091C13.5538 15.2666 13.125 16.2969 13.125 17.5C13.125 18.7031 13.5538 19.7327 14.4113 20.5887C15.2673 21.4462 16.2969 21.875 17.5 21.875ZM17.5 43.75C11.6302 38.7552 7.24646 34.1155 4.34875 29.8309C1.44958 25.5478 0 21.5833 0 17.9375C0 12.4688 1.75948 8.11198 5.27844 4.86719C8.79594 1.6224 12.8698 0 17.5 0C22.1302 0 26.2041 1.6224 29.7216 4.86719C33.2405 8.11198 35 12.4688 35 17.9375C35 21.5833 33.5511 25.5478 30.6534 29.8309C27.7543 34.1155 23.3698 38.7552 17.5 43.75Z" fill="black" fill-opacity="0.7"/>
</svg>
