<svg width="31" height="24" viewBox="0 0 31 24" fill="none" xmlns="http://www.w3.org/2000/svg">
<path d="M27.9584 0H6.90006C5.24096 0 3.89172 1.3455 3.89172 3V10.5H6.90006V6L16.5267 13.2C16.7872 13.3945 17.1038 13.4996 17.4292 13.4996C17.7546 13.4996 18.0713 13.3945 18.3317 13.2L27.9584 6V19.5H15.9251V22.5H27.9584C29.6175 22.5 30.9667 21.1545 30.9667 19.5V3C30.9667 1.3455 29.6175 0 27.9584 0ZM17.4292 10.125L7.90183 3H26.9566L17.4292 10.125Z" fill="white"/>
<path d="M0.883301 12H11.4125V15H0.883301V12ZM3.89163 16.5H12.9166V19.5H3.89163V16.5ZM8.40413 21H14.4208V24H8.40413V21Z" fill="white"/>
</svg>
