<svg width="35" height="35" viewBox="0 0 35 35" fill="none" xmlns="http://www.w3.org/2000/svg">
<path d="M32.9583 35C28.7778 35 24.7029 34.0764 20.7336 32.2292C16.7631 30.3819 13.2469 27.919 10.185 24.8403C7.12185 21.7616 4.65889 18.2369 2.79611 14.2664C0.932037 10.2971 0 6.22222 0 2.04167V1.02083C0 0.664352 0.0324073 0.324074 0.0972221 0H11.4722L13.2708 9.77083L7.72917 15.3611C9.09028 17.6944 10.8001 19.8819 12.8586 21.9236C14.9158 23.9653 17.1759 25.7315 19.6389 27.2222L25.2778 21.5833L35 23.5278V34.9028C34.6759 34.9352 34.3356 34.9598 33.9792 34.9767C33.6227 34.9922 33.2824 35 32.9583 35Z" fill="black" fill-opacity="0.7"/>
</svg>
