<svg width="50" height="50" viewBox="0 0 50 50" fill="none" xmlns="http://www.w3.org/2000/svg">
<path d="M21.9247 49.8162C17.4657 49.2381 12.8755 47.3258 9.53198 44.6495C2.00447 38.6437 -1.41244 29.1554 0.540529 19.7328C1.37796 15.6643 3.55903 11.3834 6.35099 8.29932C8.40769 5.98467 10.8879 4.08457 13.6582 2.70134C17.336 0.837431 20.8514 0 25.001 0C27.9789 0 30.3725 0.390593 33.1144 1.32645C36.7166 2.56205 39.9892 4.60372 42.6827 7.29586C45.3762 9.988 47.4195 13.2595 48.6569 16.8611C50.1224 21.1576 50.3896 25.7307 49.4537 30.2631C48.7053 33.8441 46.7758 37.8719 44.401 40.7842C43.4245 41.9887 41.1778 44.137 39.9982 45.0072C36.4693 47.6281 32.319 49.2854 27.9555 49.8162C26.6696 49.9787 23.1699 49.9709 21.9263 49.8162H21.9247ZM28.7367 47.7258C34.8273 46.705 40.2629 43.3066 43.8479 38.2781C48.071 32.3458 49.2022 24.3871 46.818 17.447C46.2571 15.819 44.865 13.1021 43.8479 11.6694C42.7168 10.0664 39.917 7.25878 38.3062 6.12762C36.7438 5.02146 34.0831 3.67782 32.2676 3.08412C28.9905 1.99537 25.5107 1.65685 22.0852 2.09359C18.6597 2.53033 15.3761 3.73116 12.4771 5.60735C9.74942 7.39911 7.41781 9.73072 5.62605 12.4584C3.75033 15.3559 2.54974 18.6379 2.113 22.0618C1.67625 25.4857 2.01453 28.9639 3.10282 32.2395C3.70433 34.0535 5.04797 36.7235 6.14632 38.2859C7.28529 39.8889 10.0851 42.6965 11.6881 43.8277C13.1286 44.8369 15.8377 46.2275 17.4657 46.7977C21.0893 48.0288 24.9605 48.3476 28.7367 47.7258V47.7258ZM20.078 39.3436C18.9099 39.1675 17.7892 38.7579 16.7829 38.1391C15.8799 37.561 9.06014 30.8803 8.72736 30.2538C8.34458 29.5382 9.01171 28.2352 9.96476 27.8368L10.4116 27.6493L9.03671 26.2494C8.28052 25.476 7.56339 24.6542 7.44934 24.4261C7.18061 23.9059 7.1728 22.7903 7.42434 22.2935C7.53058 22.0904 7.78212 21.781 7.97742 21.6092C8.31177 21.3326 8.34301 21.2342 8.31177 20.5343C8.27115 19.9156 8.32739 19.6718 8.59612 19.2078C8.98671 18.5407 9.7929 18.0923 10.5819 18.0845C11.0209 18.0845 11.135 18.0282 11.3225 17.7017C11.8115 16.8471 13.2098 16.5377 14.2769 17.0595L14.855 17.3361L15.1393 17.0595C15.5299 16.7018 16.3111 16.3846 16.8236 16.3846C17.8485 16.3846 19.2968 17.5642 19.2968 18.3938C19.2968 19.3859 18.3938 19.5578 17.4985 18.736C16.9048 18.1829 16.6033 18.1251 16.3595 18.5157C16.2377 18.7032 16.5298 19.0531 18.2797 20.8186C20.0296 22.5763 20.3467 22.9512 20.3467 23.284C20.3329 23.5391 20.2243 23.7798 20.0422 23.959C19.8601 24.1382 19.6177 24.2429 19.3624 24.2527C19.0453 24.2527 18.525 23.7965 16.1236 21.4045C13.6738 18.9625 13.227 18.5719 13.0317 18.6953C12.502 19.0297 12.6817 19.2734 15.5455 22.1451C17.1001 23.7074 18.3781 25.0901 18.3781 25.2214C18.3781 25.4901 18.1344 25.9869 17.9313 26.1166C17.7647 26.1898 17.5834 26.2235 17.4016 26.215C17.0673 26.2228 16.5548 25.7588 13.8301 23.0419C11.0959 20.3233 10.6069 19.8843 10.4116 20.0062C9.87414 20.3483 10.0538 20.5842 13.1707 23.7168C14.8722 25.4182 16.2955 26.94 16.3361 27.1025C16.4252 27.3962 16.2299 27.9086 15.9705 28.0868C15.7984 28.1599 15.6121 28.1936 15.4252 28.1852C15.0909 28.1852 14.6691 27.8196 12.4146 25.5651C10.2413 23.3918 9.73665 22.945 9.46011 22.97C8.67892 23.059 8.95546 23.409 12.9911 27.454C16.4908 30.9615 16.9376 31.4584 16.9376 31.824C16.9411 31.9582 16.911 32.0912 16.8498 32.2107C16.7887 32.3302 16.6985 32.4326 16.5877 32.5083C15.9611 33.0051 15.7174 32.8911 14.1379 31.3615C13.3317 30.5881 12.502 29.8397 12.2818 29.7007C11.8833 29.457 10.8741 29.3507 10.6866 29.546C10.621 29.6023 12.1099 31.174 13.991 33.0364C17.1235 36.1361 17.4813 36.4548 18.4016 36.8938C19.2493 37.316 20.183 37.537 21.13 37.5397C22.077 37.5424 23.0119 37.3268 23.8621 36.9095C26.49 35.6564 27.9477 32.6129 27.2305 29.8538C26.8727 28.4789 26.4243 27.8196 24.6182 25.9557C22.5356 23.823 22.0544 23.2372 21.5419 22.2122C20.9717 21.0655 20.7279 19.9499 20.7279 18.5579C20.7279 17.0517 20.8826 16.369 21.5497 14.9613C22.1841 13.6192 23.5105 12.2115 24.8214 11.4866C27.393 10.0539 30.7787 10.1757 33.2347 11.7803C33.7237 12.0974 35.4892 13.7582 37.6859 15.9628C40.9497 19.2344 41.3231 19.6578 41.3231 20.0312C41.3231 20.9186 40.5982 21.9029 39.7936 22.106C39.492 22.1872 39.5498 22.2685 40.9169 23.6606C41.7137 24.4667 42.4543 25.337 42.5683 25.6057C42.9511 26.5259 42.7793 27.4196 42.0793 28.1524C41.7215 28.5273 41.6731 28.657 41.6637 29.4054C41.6559 30.0647 41.5825 30.3413 41.3216 30.7162C41.1155 31.0213 40.8395 31.2727 40.5167 31.4496C40.1939 31.6265 39.8335 31.7238 39.4655 31.7333C38.9608 31.7333 38.8639 31.7818 38.6108 32.1645C38.0406 33.0442 36.5594 33.352 35.6002 32.7832L35.1205 32.4989L34.7783 32.8332C34.0222 33.5582 32.8004 33.6551 31.8739 33.0613C31.1255 32.5895 30.5724 31.9302 30.5724 31.5146C30.5724 31.149 31.1021 30.5459 31.4271 30.5459C31.7364 30.5459 32.152 30.7897 32.6238 31.2302C33.0957 31.6771 33.5035 31.6771 33.5675 31.2224C33.6003 30.9787 33.2097 30.5147 31.6302 28.9273C29.9694 27.2509 29.6522 26.8681 29.6522 26.5431C29.6485 26.3617 29.682 26.1815 29.7506 26.0135C29.9303 25.7448 30.435 25.5573 30.7427 25.6385C30.9052 25.6791 32.2801 26.9494 33.7862 28.4539C35.3002 29.9679 36.6266 31.2037 36.7485 31.2037C37.0828 31.2037 37.3016 30.8693 37.1469 30.585C37.0735 30.4553 35.7954 29.1445 34.3143 27.6634C31.9958 25.3526 31.6208 24.9214 31.6208 24.5792C31.6132 24.395 31.6468 24.2114 31.7192 24.0418C31.8583 23.8387 32.3457 23.5949 32.6223 23.5949C32.7441 23.5949 34.2737 25.0183 36.0236 26.7603C39.2295 29.9507 39.4655 30.1288 39.7998 29.6007C39.9217 29.4054 39.4826 28.9086 36.7641 26.1822C33.9565 23.3668 33.5831 22.9434 33.5831 22.5778C33.5831 22.3263 33.6972 22.0654 33.8769 21.9029C34.4706 21.342 34.6502 21.4561 37.5391 24.3277C40.2732 27.054 40.5169 27.2321 40.8513 26.7119C40.9732 26.5166 40.4201 25.9151 37.0266 22.5122C33.3316 18.8016 33.0644 18.5 33.0644 18.0688C33.0644 17.4173 33.4394 17.108 34.1628 17.158C34.2924 17.1658 35.0736 17.8251 35.8798 18.6141C36.6938 19.4031 37.5719 20.1437 37.8328 20.2577C38.3452 20.4686 38.9389 20.5014 39.192 20.339C39.4358 20.1843 32.6816 13.5364 31.8036 13.0724C31.0507 12.666 30.2227 12.4181 29.3704 12.3437C28.5181 12.2694 27.6596 12.3703 26.8478 12.6402C26.036 12.91 25.288 13.3432 24.6498 13.913C24.0116 14.4828 23.4969 15.1772 23.1371 15.9534C22.7137 16.8564 22.6575 17.1252 22.5997 18.2891C22.5512 19.3875 22.5918 19.7296 22.8278 20.4296C23.2512 21.6748 23.6168 22.1872 25.5135 24.1246C27.5649 26.2244 27.9555 26.7041 28.4757 27.8274C29.9412 30.9521 29.3225 34.5659 26.9056 36.9735C25.0666 38.8203 22.5606 39.6827 20.078 39.3421V39.3436Z" fill="black"/>
</svg>
