<svg width="25" height="24" viewBox="0 0 25 24" fill="none" xmlns="http://www.w3.org/2000/svg">
<path fill-rule="evenodd" clip-rule="evenodd" d="M0.163941 2.00509C0.163941 1.47331 0.375778 0.963308 0.75285 0.58728C1.12992 0.211253 1.64134 2.67307e-06 2.1746 2.67307e-06H22.2178C22.482 -0.000427747 22.7438 0.0511258 22.988 0.151712C23.2323 0.252298 23.4543 0.399941 23.6412 0.586188C23.8282 0.772435 23.9765 0.993628 24.0776 1.2371C24.1788 1.48058 24.2307 1.74156 24.2306 2.00509V21.9927C24.2309 22.2563 24.1791 22.5174 24.0781 22.761C23.9771 23.0046 23.8289 23.2259 23.6421 23.4123C23.4552 23.5988 23.2334 23.7466 22.9891 23.8475C22.7449 23.9483 22.4832 24.0001 22.2188 24H2.1746C1.91047 24 1.64892 23.9481 1.4049 23.8473C1.16089 23.7464 0.939184 23.5986 0.752463 23.4123C0.565741 23.226 0.41766 23.0049 0.316679 22.7615C0.215698 22.5181 0.163797 22.2572 0.163941 21.9938V2.00509ZM9.68996 9.15055H12.9488V10.7825C13.4192 9.84437 14.6225 9 16.4308 9C19.8975 9 20.7191 10.8687 20.7191 14.2975V20.6487H17.2108V15.0785C17.2108 13.1258 16.7404 12.024 15.5458 12.024C13.8885 12.024 13.1993 13.212 13.1993 15.0785V20.6487H9.68996V9.15055ZM3.6733 20.4993H7.18266V9H3.6733V20.4982V20.4993ZM7.68477 5.24946C7.69139 5.5491 7.63792 5.84704 7.52751 6.1258C7.41709 6.40456 7.25196 6.65851 7.04179 6.87276C6.83162 7.08702 6.58066 7.25725 6.30363 7.37346C6.02659 7.48968 5.72907 7.54955 5.42852 7.54955C5.12798 7.54955 4.83045 7.48968 4.55342 7.37346C4.27639 7.25725 4.02542 7.08702 3.81526 6.87276C3.60509 6.65851 3.43995 6.40456 3.32954 6.1258C3.21912 5.84704 3.16566 5.5491 3.17227 5.24946C3.18526 4.6613 3.42868 4.10159 3.85039 3.69021C4.2721 3.27882 4.83859 3.04846 5.42852 3.04846C6.01846 3.04846 6.58494 3.27882 7.00666 3.69021C7.42837 4.10159 7.67179 4.6613 7.68477 5.24946V5.24946Z" fill="white"/>
</svg>
