<svg width="25" height="24" viewBox="0 0 25 24" fill="none" xmlns="http://www.w3.org/2000/svg">
<path fill-rule="evenodd" clip-rule="evenodd" d="M7.50005 0.072C8.78324 0.0130909 9.19238 0 12.4611 0C15.7298 0 16.1389 0.0141818 17.421 0.072C18.7031 0.129818 19.5782 0.333818 20.344 0.629455C21.1459 0.931636 21.8733 1.404 22.475 2.01491C23.0876 2.61382 23.5602 3.33818 23.8621 4.13891C24.1597 4.90255 24.3631 5.77527 24.4222 7.05164C24.4813 8.33345 24.4944 8.74145 24.4944 12C24.4944 15.2596 24.4802 15.6676 24.4222 16.9473C24.3642 18.2236 24.1597 19.0964 23.8621 19.86C23.5602 20.6608 23.0868 21.3864 22.475 21.9862C21.8733 22.5971 21.1459 23.0684 20.344 23.3695C19.5782 23.6662 18.7031 23.8691 17.4232 23.928C16.1389 23.9869 15.7298 24 12.4611 24C9.19238 24 8.78324 23.9858 7.50005 23.928C6.22014 23.8702 5.34499 23.6662 4.57923 23.3695C3.7762 23.0683 3.04862 22.5963 2.44715 21.9862C1.83496 21.3869 1.36121 20.6617 1.05894 19.8611C0.76248 19.0975 0.559007 18.2247 0.499934 16.9484C0.440862 15.6665 0.427734 15.2585 0.427734 12C0.427734 8.74036 0.441956 8.33236 0.499934 7.05382C0.557913 5.77527 0.76248 4.90255 1.05894 4.13891C1.36166 3.33827 1.83576 2.61307 2.44824 2.01382C3.04886 1.40346 3.77571 0.931029 4.57814 0.629455C5.3439 0.333818 6.21905 0.130909 7.49896 0.072H7.50005ZM17.3236 2.232C16.0547 2.17418 15.674 2.16218 12.4611 2.16218C9.24817 2.16218 8.86748 2.17418 7.59851 2.232C6.42471 2.28545 5.78804 2.48073 5.36359 2.64545C4.8024 2.86364 4.40092 3.12218 3.97976 3.54218C3.58052 3.92951 3.27327 4.40104 3.08054 4.92218C2.91535 5.34545 2.71954 5.98036 2.66593 7.15091C2.60796 8.41636 2.59592 8.796 2.59592 12C2.59592 15.204 2.60796 15.5836 2.66593 16.8491C2.71954 18.0196 2.91535 18.6545 3.08054 19.0778C3.27307 19.5982 3.58047 20.0705 3.97976 20.4578C4.3681 20.856 4.84178 21.1625 5.36359 21.3545C5.78804 21.5193 6.42471 21.7145 7.59851 21.768C8.86748 21.8258 9.24707 21.8378 12.4611 21.8378C15.6751 21.8378 16.0547 21.8258 17.3236 21.768C18.4974 21.7145 19.1341 21.5193 19.5585 21.3545C20.1197 21.1364 20.5212 20.8778 20.9424 20.4578C21.3417 20.0705 21.6491 19.5982 21.8416 19.0778C22.0068 18.6545 22.2026 18.0196 22.2562 16.8491C22.3142 15.5836 22.3262 15.204 22.3262 12C22.3262 8.796 22.3142 8.41636 22.2562 7.15091C22.2026 5.98036 22.0068 5.34545 21.8416 4.92218C21.6228 4.36255 21.3635 3.96218 20.9424 3.54218C20.554 3.14408 20.0811 2.83768 19.5585 2.64545C19.1341 2.48073 18.4974 2.28545 17.3236 2.232V2.232ZM10.9241 15.6993C11.7825 16.0556 12.7382 16.1037 13.6282 15.8353C14.5182 15.567 15.2871 14.9988 15.8037 14.2279C16.3203 13.457 16.5525 12.5311 16.4606 11.6085C16.3687 10.6858 15.9584 9.82361 15.2998 9.16909C14.88 8.7507 14.3724 8.43034 13.8135 8.23107C13.2547 8.0318 12.6584 7.95858 12.0678 8.01667C11.4771 8.07477 10.9067 8.26274 10.3977 8.56705C9.88862 8.87136 9.45355 9.28445 9.12379 9.77657C8.79403 10.2687 8.57779 10.8276 8.49063 11.413C8.40347 11.9985 8.44757 12.596 8.61974 13.1624C8.79192 13.7288 9.08789 14.2501 9.48634 14.6888C9.8848 15.1275 10.3758 15.4726 10.9241 15.6993ZM8.0875 7.63855C8.66184 7.06579 9.34369 6.61146 10.0941 6.30149C10.8445 5.99151 11.6488 5.83197 12.4611 5.83197C13.2733 5.83197 14.0776 5.99151 14.828 6.30148C15.5784 6.61146 16.2603 7.06579 16.8346 7.63855C17.409 8.2113 17.8646 8.89126 18.1754 9.6396C18.4862 10.3879 18.6462 11.19 18.6462 12C18.6462 12.81 18.4862 13.6121 18.1754 14.3604C17.8646 15.1087 17.409 15.7887 16.8346 16.3615C15.6747 17.5182 14.1015 18.168 12.4611 18.168C10.8207 18.168 9.24744 17.5182 8.0875 16.3615C6.92756 15.2047 6.27591 13.6359 6.27591 12C6.27591 10.3641 6.92756 8.79528 8.0875 7.63855V7.63855ZM20.018 6.75055C20.1603 6.61666 20.2743 6.45565 20.3531 6.27706C20.4319 6.09847 20.474 5.90593 20.4768 5.71083C20.4797 5.51574 20.4432 5.32205 20.3697 5.14125C20.2961 4.96044 20.1869 4.79619 20.0486 4.65822C19.9102 4.52026 19.7455 4.41137 19.5642 4.33802C19.3829 4.26467 19.1887 4.22834 18.9931 4.23118C18.7974 4.23403 18.6043 4.27599 18.4253 4.35458C18.2462 4.43317 18.0847 4.5468 17.9505 4.68873C17.6893 4.96476 17.5464 5.33141 17.5519 5.71083C17.5575 6.09026 17.7111 6.4526 17.9802 6.72092C18.2492 6.98924 18.6126 7.14243 18.9931 7.14796C19.3735 7.15349 19.7412 7.01093 20.018 6.75055V6.75055Z" fill="white"/>
</svg>
