<svg width="31" height="24" viewBox="0 0 31 24" fill="none" xmlns="http://www.w3.org/2000/svg">
<path d="M30.2963 2.84684C29.2076 3.32792 28.0381 3.65297 26.8085 3.79989C28.0772 3.0429 29.0263 1.85148 29.4788 0.447947C28.2869 1.15395 26.9824 1.6509 25.6221 1.91719C24.7073 0.943152 23.4956 0.297546 22.1752 0.0806033C20.8548 -0.13634 19.4994 0.0875171 18.3197 0.71742C17.1399 1.34732 16.2016 2.34803 15.6506 3.56417C15.0996 4.78031 14.9666 6.14385 15.2723 7.44309C12.8572 7.32216 10.4946 6.69618 8.33783 5.60576C6.18104 4.51535 4.27826 2.98487 2.753 1.11366C2.23147 2.0108 1.93159 3.05097 1.93159 4.15875C1.931 5.15601 2.17727 6.13799 2.64853 7.01757C3.11979 7.89715 3.80148 8.64713 4.63311 9.20098C3.66864 9.17037 2.72545 8.91049 1.88204 8.44295V8.52096C1.88194 9.91966 2.36711 11.2753 3.25521 12.3579C4.14331 13.4405 5.37964 14.1833 6.75443 14.4603C5.85973 14.7018 4.9217 14.7374 4.01119 14.5644C4.39907 15.7678 5.15463 16.8203 6.1721 17.5742C7.18957 18.3282 8.418 18.7461 9.68543 18.7692C7.5339 20.4535 4.87678 21.3672 2.1415 21.3632C1.65698 21.3633 1.17286 21.3351 0.69165 21.2786C3.46811 23.0589 6.70011 24.0037 10.001 24C21.1747 24 27.2831 14.7711 27.2831 6.76698C27.2831 6.50694 27.2766 6.24429 27.2649 5.98425C28.453 5.12738 29.4787 4.0663 30.2937 2.85074L30.2963 2.84684V2.84684Z" fill="white"/>
</svg>
